<svg id="Ebene_1" data-name="Ebene 1" xmlns="http://www.w3.org/2000/svg" viewBox="0 0 102.02 118.79"><defs><style>.cls-1{fill:#fff;}.cls-2{fill:#f9a70d;}.cls-3{fill:#231f20;}.cls-4{fill:#b6242a;}</style></defs><title>Unbenannt-1</title><path class="cls-1" d="M51,118.79c-6,0-18.61-5.21-29.34-13.94C11.78,96.82,0,83.07,0,63.19V0H102V63.19c0,19.87-11.78,33.62-21.67,41.66C69.62,113.58,57,118.79,51,118.79"/><path class="cls-2" d="M50.86,5.74V112.67c10.9,0,45.07-19.06,45.07-50.7V5.74H50.86"/><path class="cls-1" d="M51.06,5.54V112.47C42.67,112.47,6,92,6,61.77V5.54H51.06"/><path class="cls-3" d="M27,73.74a0.52,0.52,0,0,1-.52-0.53V61.16a0.52,0.52,0,1,1,1,0V73.22a0.52,0.52,0,0,1-.52.53"/><path class="cls-3" d="M51.22,72.26h44v-34h-44v34Z"/><path class="cls-3" d="M29.64,73.74a0.52,0.52,0,0,1-.53-0.53V61.16a0.52,0.52,0,0,1,1,0V73.22a0.52,0.52,0,0,1-.52.53"/><path class="cls-3" d="M22.24,70.38H34.82v-1H22.24v1Z"/><path class="cls-3" d="M24.38,73.74a0.52,0.52,0,0,1-.53-0.53v-11a0.53,0.53,0,0,1,1.05,0v11a0.52,0.52,0,0,1-.53.53"/><path class="cls-4" d="M22.24,80H13.86V71.58l4.19-4.19V33.85l-4.19-4.19V21.27h4.19v4.2h4.19v-4.2h4.19v4.2h4.19v-4.2h4.19v4.2H39v-4.2h4.19v8.39L39,33.85V67.39l4.19,4.19V80H34.82V69.48a6.29,6.29,0,0,0-12.58,0V80"/><path class="cls-3" d="M32.24,73.74a0.48,0.48,0,0,1-.52-0.41V64.82a0.54,0.54,0,0,1,1,0v8.51a0.48,0.48,0,0,1-.53.41"/><path class="cls-3" d="M25.9,48.5H28V38H25.9V48.5Z"/><path class="cls-3" d="M22,72.68H34.62v-1H22v1Z"/><path class="cls-3" d="M29.06,48.5h2.1V38h-2.1V48.5Z"/><path class="cls-3" d="M35.14,79.64h7.34V72l-4.19-4.19v-34l4.19-4.19V22H39.34v4.2H34.1V22H31v4.2H25.71V22H22.57v4.2H17.33V22H14.18v7.65l4.19,4.19v34L14.18,72v7.64h7.34v-10a6.81,6.81,0,0,1,13.62,0v10h0Zm8.39,1H34.1v-11a5.77,5.77,0,0,0-11.53,0v11H13.13V71.57l4.19-4.19V34.26l-4.19-4.19V20.94h5.24v4.2h3.15v-4.2h5.24v4.2H29.9v-4.2h5.24v4.2h3.15v-4.2h5.24v9.13l-4.19,4.19V67.37l4.19,4.19v9.13"/><path class="cls-3" d="M97.18,4.5H4.95V62.8c0,33.36,37.59,50.7,46.12,50.7S97.18,96.17,97.18,62.8V4.5Zm-2.1,2.1V62.8C95.09,79.93,84.71,92,76,99c-10.62,8.64-21.66,12.37-24.94,12.37S36.75,107.68,26.13,99C17.42,92,7,79.93,7,62.8V6.6h88"/><path class="cls-3" d="M50.74,112.26h2V6.26h-2v106Z"/></svg>